<?xml version="1.0" encoding="UTF-8" standalone="no"?>
<!-- Created with Inkscape (http://www.inkscape.org/) -->

<svg
   width="297mm"
   height="210mm"
   viewBox="0 0 1122.5197 793.70081"
   version="1.1"
   id="svg1"
   xml:space="preserve"
   sodipodi:docname="background.svg"
   inkscape:export-filename="background.png"
   inkscape:export-xdpi="96.041077"
   inkscape:export-ydpi="96.041077"
   inkscape:version="1.3.2 (091e20e, 2023-11-25, custom)"
   xmlns:inkscape="http://www.inkscape.org/namespaces/inkscape"
   xmlns:sodipodi="http://sodipodi.sourceforge.net/DTD/sodipodi-0.dtd"
   xmlns:xlink="http://www.w3.org/1999/xlink"
   xmlns="http://www.w3.org/2000/svg"
   xmlns:svg="http://www.w3.org/2000/svg"><sodipodi:namedview
     id="namedview1"
     pagecolor="#ffffff"
     bordercolor="#999999"
     borderopacity="1"
     inkscape:showpageshadow="2"
     inkscape:pageopacity="0"
     inkscape:pagecheckerboard="0"
     inkscape:deskcolor="#d1d1d1"
     inkscape:document-units="mm"
     inkscape:zoom="0.51215774"
     inkscape:cx="627.73629"
     inkscape:cy="639.45143"
     inkscape:window-width="1920"
     inkscape:window-height="1009"
     inkscape:window-x="-8"
     inkscape:window-y="-8"
     inkscape:window-maximized="1"
     inkscape:current-layer="layer3"
     showguides="false" /><defs
     id="defs1"><linearGradient
       id="linearGradient55"
       inkscape:collect="always"><stop
         style="stop-color:#ff9f4f;stop-opacity:1;"
         offset="0"
         id="stop55" /><stop
         style="stop-color:#b938f1;stop-opacity:1;"
         offset="0.50938398"
         id="stop57" /><stop
         style="stop-color:#1811ac;stop-opacity:1;"
         offset="1"
         id="stop56" /></linearGradient><linearGradient
       id="swatch41"
       inkscape:swatch="solid"><stop
         style="stop-color:#000000;stop-opacity:1;"
         offset="0"
         id="stop41" /></linearGradient><inkscape:path-effect
       effect="spiro"
       id="path-effect24"
       is_visible="true"
       lpeversion="1" /><inkscape:path-effect
       effect="spiro"
       id="path-effect23"
       is_visible="true"
       lpeversion="1" /><rect
       x="215.75384"
       y="691.19331"
       width="117.15141"
       height="60.528227"
       id="rect14" /><rect
       x="154.63197"
       y="684.1084"
       width="15.187068"
       height="17.258032"
       id="rect13" /><rect
       x="154.28681"
       y="684.1084"
       width="12.770944"
       height="14.496747"
       id="rect12" /><inkscape:path-effect
       effect="spiro"
       id="path-effect11"
       is_visible="true"
       lpeversion="1" /><inkscape:path-effect
       effect="spiro"
       id="path-effect10"
       is_visible="true"
       lpeversion="1" /><inkscape:perspective
       sodipodi:type="inkscape:persp3d"
       inkscape:vp_x="0 : 396.85041 : 1"
       inkscape:vp_y="0 : 1000 : 0"
       inkscape:vp_z="1122.5197 : 396.85041 : 1"
       inkscape:persp3d-origin="561.25985 : 264.56694 : 1"
       id="perspective1" /><linearGradient
       inkscape:collect="always"
       xlink:href="#linearGradient55"
       id="linearGradient56"
       x1="575.99445"
       y1="649.12787"
       x2="574.04187"
       y2="-70.290848"
       gradientUnits="userSpaceOnUse" /></defs><g
     inkscape:label="Layer 1"
     inkscape:groupmode="layer"
     id="layer1"><rect
       style="fill:url(#linearGradient56);fill-opacity:1;stroke:none;stroke-width:42.8863;stroke-dasharray:none;stroke-opacity:0"
       id="rect51"
       width="1134.4161"
       height="804.43964"
       x="-7.8100939"
       y="-5.8575702" /></g><g
     inkscape:groupmode="layer"
     id="layer3"
     inkscape:label="Layer 2"><path
       style="fill:#0f0f0f;fill-opacity:1;stroke:none;stroke-width:1.00157;stroke-dasharray:none;stroke-opacity:1"
       d="m 1122.457,634.02256 v 0.12203 l -14.766,-4.88131 -21.5998,-6.22367 -1.2203,1.0983 -3.2949,-3.53895 -8.9084,-1.09829 -11.5931,-9.39652 -6.8338,-0.7322 -25.1388,-18.67101 -0.6101,-3.05081 -6.3457,-5.97961 -0.7322,1.22033 -2.5627,0.48813 -0.7322,2.19659 -2.6847,1.34236 -4.6373,-5.49147 -4.3932,-3.41692 -1.9525,1.46439 -3.661,-3.53895 -1.70843,-0.48813 -1.09829,-1.95252 -4.88131,0.7322 -0.3661,-2.31863 -2.56268,-0.61016 -1.0983,-0.97626 -3.41691,-3.05082 -3.66099,1.0983 -11.9592,-0.48814 -3.17285,-3.66098 -2.44066,0.12204 -0.85423,1.58642 -5.00334,0.24407 -2.80675,-3.29489 -4.63724,-1.58642 -0.85423,-3.66098 -3.17285,-3.53895 -2.31863,-1.4644 -1.22032,-0.24406 v 0.85423 l -1.70846,0.24406 -1.46439,-0.24406 0.12203,-1.22033 -9.15246,-5.24741 -3.53894,0.61017 -1.58643,-1.34236 -8.29822,-0.97626 -7.56603,0.97626 -1.4644,1.58642 -2.56268,0.3661 h -11.34905 l -3.41691,-3.90505 -2.07456,-1.09829 -2.92878,0.61016 -4.63725,2.07456 -1.95252,-2.07456 -11.10498,-2.92878 -2.07455,-6.83383 -2.07456,-2.19659 -1.22033,-5.24741 c 0,0 -3.05082,-3.66098 -3.29488,-4.27114 -0.24407,-0.61017 -0.12203,-2.80676 -0.12203,-2.80676 l -1.0983,-3.41691 -0.97626,-0.97627 -2.19659,0.24407 -4.88131,5.00334 -2.07455,-0.24406 -1.83049,2.31862 h -4.63725 l -2.68472,2.56268 -5.9796,-0.73219 -3.90505,-9.15246 -3.90504,-0.97626 -3.29489,-15.49815 -1.34236,-0.85423 0.3661,-5.00334 -2.07456,-3.90505 -2.31862,-5.36944 -1.70846,0.12203 -2.07455,-0.24406 c 0,0 -1.46439,-0.85423 -2.31862,-1.22033 -0.85423,-0.3661 -2.31863,-0.7322 -2.31863,-0.7322 h -2.80675 l -1.70846,3.17285 -1.22032,0.24407 -1.4644,-2.07456 -1.83049,-0.48813 -1.83049,1.34236 -0.24406,1.70846 -2.80676,1.95252 -0.97626,4.88131 -0.61016,0.97627 -2.31862,0.12203 -2.07456,-2.07456 -0.12203,-3.66098 -2.07456,-1.34236 -3.66098,-0.3661 -5.12537,2.19659 -0.12204,3.29488 -8.90838,7.19993 -1.58643,-0.97626 -0.61016,-3.41691 -1.0983,-0.61017 -2.68472,1.58643 -1.58642,5.24741 -6.3457,-1.0983 -5.36944,2.44066 -1.95253,4.14911 -2.68472,-0.85423 -2.68472,-2.44066 -3.90504,-2.68472 -1.95253,-0.12203 -1.46439,2.31862 -1.83049,-0.97626 -0.48813,-2.56269 -3.53895,-4.02707 -4.39318,-0.61017 0.12203,-2.80675 -2.07455,-0.61016 -1.4644,-0.97627 -3.29488,0.48813 -3.53895,3.90505 -2.80675,7.19993 -4.88131,-1.09829 -0.7322,0.73219 -1.95252,-0.24406 -1.58642,1.83049 -1.83049,-1.34236 -4.88131,1.46439 -0.85423,3.17285 -2.07456,-0.3661 -1.95252,0.85423 -2.07456,5.85757 -1.34236,-0.61016 -0.24406,-2.19659 -2.31863,0.12203 -0.36609,1.95253 -2.56269,0.48813 -2.56269,8.05416 -2.44065,0.48813 -3.41692,-2.07456 -2.07455,2.07456 -5.24741,1.83049 -1.22033,-2.31862 -3.41692,-1.22033 -3.78301,4.14911 -1.46439,-0.12203 -3.90505,13.30157 -2.19659,1.22032 -1.46439,-8.42025 -9.27449,-14.1558 -3.90504,-1.46439 -2.80676,-0.24407 -2.80675,-1.58642 -8.66432,-1.58643 -1.4644,0.97626 -2.68472,-0.85422 -0.36609,-3.53895 -1.4644,-3.05082 -0.73219,-3.29489 -2.07456,-0.85422 -1.22033,-3.17286 -4.63724,-19.4032 -1.95252,-1.95252 -0.12204,-7.68806 -2.19658,-1.22033 -1.8305,-6.22367 -2.31862,-0.73219 -2.68472,-1.58643 -0.85423,-3.53895 -6.46773,-3.78301 -5.12538,1.95252 -3.17285,3.78302 h -3.90505 l -2.68471,1.95252 -2.19659,0.12203 -5.49148,4.02708 -1.95252,2.56269 -2.92878,0.97626 -7.93213,7.32197 h -1.95252 l -4.14912,2.92878 -7.56603,8.66432 -2.19658,0.61017 -6.83384,5.2474 -1.34236,5.24741 -5.6135,0.3661 -3.41692,2.07456 -1.83049,4.39317 -4.02708,0.3661 -1.83049,5.73554 -3.05082,0.85423 -2.31862,5.85757 0.12203,5.49147 -2.07455,1.22033 -1.95252,2.68472 -1.58643,5.12537 -4.27115,2.19659 -1.34236,-5.49147 -1.58642,-0.24407 -0.61016,-4.02708 -2.68472,-0.3661 -5.73554,6.58977 -7.93213,14.52189 -2.19659,2.92879 -5.2474,2.68472 -1.4644,3.05082 -2.80675,-3.05082 -1.46439,-1.09829 -2.44066,1.09829 -0.61016,-2.44065 -1.58642,-0.3661 -0.85423,-1.83049 -3.05082,0.12203 -2.80675,3.41692 -3.17285,0.12203 -2.92879,1.95252 -2.56269,5.36944 -7.68806,8.29823 -17.45068,2.56268 -2.31862,1.34236 -2.31862,-0.3661 -5.9796,-4.51521 -5.12538,-0.48813 -1.83049,-3.29488 -3.29488,0.12203 -2.92879,-2.56268 -3.05081,0.24406 v -5.6135 l -1.22033,-0.61017 -0.48813,-2.19659 -1.34236,-0.73219 -2.44066,1.70846 -1.34236,-2.19659 h -1.58642 l -1.22033,0.85423 0.61016,1.09829 -1.22032,0.7322 -1.70846,-1.70846 -2.19659,-7.93213 h -1.95252 l -5.12538,-14.76596 -2.68472,-0.3661 -1.46439,-3.90504 -2.07456,-0.24407 -0.97626,0.97626 -3.53895,-1.46439 -3.29488,-0.12203 -7.32196,-6.22367 -10.00669,-0.12203 -1.95252,-0.3661 -7.32196,2.44065 -2.56269,4.63725 -6.3457,4.27114 -3.05082,5.24741 -1.46439,-0.97626 -3.05082,4.27114 -3.53895,1.34236 -0.3661,5.49147 -1.34236,1.34236 -2.56268,0.12204 -3.53895,2.19659 -0.12203,2.56268 h -2.56269 l -1.34236,3.41692 -2.92879,1.34236 -0.73219,2.31862 -1.0983,3.53895 -2.80675,3.05082 -3.29488,0.61016 -0.61017,1.0983 -3.78301,0.24406 -1.83049,3.29488 0.12203,3.17285 -2.56269,1.95253 -0.85422,3.53895 -5.73554,0.73219 -3.90505,0.7322 -1.22033,1.95252 -5.36944,0.48813 -4.27114,1.4644 -2.19659,5.12537 -24.52858,10.61685 -18.54898,-5.97961 -18.54897,-6.10163 -2.92879,0.97626 -6.58976,-1.70846 -2.56269,-2.31862 0.12203,-1.95252 -2.56268,-4.75928 -13.4236,-8.54229 -2.31863,-5.24741 -5.12537,-5.49147 -2.19659,-6.3457 -3.53895,-3.78301 -0.73219,-2.68472 -1.83049,-1.0983 -5.49148,-9.03042 -2.19659,-0.3661 -4.75927,-5.2474 -6.83383,-0.24407 -4.27115,1.83049 -3.05082,3.41692 -7.68806,2.44065 -1.58642,3.90505 -10.25075,5.36944 -5.247406,5.12537 -5.735537,4.75928 -6.223669,2.80675 -4.51521,7.32196 -13.423599,8.66433 -4.637244,1.22032 -2.318622,-0.73219 -13.301566,9.15245 -13.179534,3.41692 -5.369439,-1.22033 -2.68472,1.70846 -4.759276,0.24406 -2.684721,3.90505 h -1.464392 l -0.610164,-1.09829 h -2.440654 l -3.538949,11.5931 -2.8067522,0.12204 -6.8338323,9.15245 -2.81542513,2.92946 0.17258032,-0.0863 L -0.77661151,956.5598 1123.1528,956.2147 V 634.00719 Z"
       id="path43" /></g></svg>
